<svg xmlns="http://www.w3.org/2000/svg" width="150" height="35" viewBox="0 0 150 35" fill="none"><path fill-rule="evenodd" clip-rule="evenodd" d="M65.2265 25.9346H71.1084V9.69616H79.2906C81.6097 9.69616 82.166 10.1677 82.166 12.0168V25.9283H88.0667V12.0292C88.0667 10.0747 88.748 9.69616 90.942 9.68996L96.2239 9.67755C98.6679 9.67755 99.1117 10.2174 99.1117 12.054V25.9408H105V10.751C105.019 6.01041 101.975 4.03103 97.9616 4.02482L90.6857 4.01241C86.8228 4.01241 86.0977 4.81906 85.1288 5.8739C84.085 4.83767 83.3599 4.01862 79.4844 4.01862H65.2202V25.9346H65.2265ZM43.2239 23.0182L35.6668 34.9876L43.2052 35L62.1386 4.00621H55.2378L46.5743 17.5641L38.2608 4.01862H30.8599L43.2177 23.0182H43.2239ZM5.82576 18.0294C5.82576 19.6675 6.48208 20.1143 8.28855 20.1143H21.5714V9.68996H9.15115C6.76962 9.68996 5.83201 9.78924 5.83826 11.75L5.82576 18.0232V18.0294ZM21.6151 25.9656L21.5964 27.9946C21.5839 29.1984 20.4712 29.4528 19.6461 29.4528H3.44423V34.9442L19.9524 34.9628C23.7091 34.9628 27.4095 33.2688 27.422 28.4165L27.4721 4H8.80736C3.66925 4.00621 -0.018681 4.51502 7.11874e-05 11.5949L0.0250741 19.3883C0.0438263 24.7928 3.75676 25.9718 7.63847 25.9718H21.6151V25.9656Z" fill="black"></path><path fill-rule="evenodd" clip-rule="evenodd" d="M131.97 3.8147e-06H138.03V30H131.97V18.0265H120V11.9675H131.97V3.8147e-06ZM138.096 18.0265L142.834 11.9675H150V18.0265H138.096Z" fill="#00AEEF"></path></svg>